<?xml version="1.0" encoding="UTF-8"?>
<svg width="50px" height="50px" viewBox="0 0 50 50" version="1.1" xmlns="http://www.w3.org/2000/svg" xmlns:xlink="http://www.w3.org/1999/xlink">
    <!-- Generator: Sketch 41.2 (35397) - http://www.bohemiancoding.com/sketch -->
    <title>icon-wand</title>
    <desc>Created with Sketch.</desc>
    <defs></defs>
    <g id="Page-1" stroke="none" stroke-width="1" fill="none" fill-rule="evenodd">
        <path d="M25,1.8 C37.793,1.8 48.2,12.207 48.2,25 C48.2,37.792 37.793,48.2 25,48.2 C12.208,48.2 1.8,37.792 1.8,25 C1.8,12.207 12.208,1.8 25,1.8 M25,0 L25,0 C11.193,0 0,11.193 0,25 C0,38.807 11.193,50 25,50 C38.807,50 50,38.807 50,25 C50,11.193 38.807,0 25,0 M24.8475416,22.9985667 L22.0325713,25.7815463 L23.8690229,27.7175259 L26.6641839,24.959182 L26.453,23.612 C26.417,23.393 26.247,23.221 26.027,23.186 L24.8475416,22.9985667 Z M22.6414348,22.6479838 L10.731,34.423 C10.225,34.914 9.891,35.572 9.791,36.274 C9.591,37.652 10.247,38.942 11.46,39.562 C11.904,39.788 12.376,39.898 12.845,39.898 C13.622,39.898 14.386,39.595 14.989,39.009 L24.3037538,29.8168918 C24.369966,29.7806498 24.432645,29.7353883 24.49,29.681 C24.5561431,29.6179803 24.6106738,29.5473315 24.6535053,29.4717454 L27.0074301,27.1488142 L27.02,27.229 C27.198,28.36 28.161,29.182 29.312,29.182 C30.194,29.182 30.96,28.709 31.364,27.917 L33.002,24.692 C33.091,24.519 33.265,24.412 33.541,24.418 L37.085,24.998 C38.197,25.18 39.186,24.587 39.597,23.597 C39.96,22.72 39.767,21.757 39.094,21.083 L36.525,18.515 C36.369,18.358 36.331,18.119 36.431,17.921 L38.098,14.651 C38.466,13.928 38.436,13.087 38.017,12.404 C37.398,11.396 36.055,11 34.99,11.542 L31.719,13.209 C31.523,13.309 31.28,13.269 31.125,13.115 L28.556,10.545 C27.621,9.613 25.983,9.71 25.147,10.691 C24.708,11.208 24.529,11.869 24.64,12.552 L25.22,16.101 C25.256,16.321 25.146,16.537 24.947,16.638 L21.734,18.268 C20.824,18.73 20.337,19.679 20.496,20.688 C20.654,21.696 21.408,22.452 22.415,22.612 L22.6414348,22.6479838 Z M20.7525217,27.0470486 L11.991,35.709 C11.763,35.929 11.617,36.219 11.572,36.531 C11.466,37.264 11.868,37.748 12.279,37.959 C12.464,38.053 13.118,38.316 13.73,37.723 L22.5875084,28.9821605 L20.7525217,27.0470486 Z M26.934,11.663 C26.78,11.663 26.621,11.737 26.519,11.857 C26.425,11.967 26.391,12.103 26.416,12.261 L26.997,15.81 C27.16,16.808 26.664,17.786 25.761,18.244 L22.548,19.874 C22.248,20.025 22.256,20.298 22.274,20.409 C22.291,20.519 22.368,20.782 22.699,20.835 L26.31,21.409 C27.301,21.566 28.073,22.339 28.23,23.331 L28.797,26.949 C28.864,27.37 29.267,27.382 29.312,27.382 C29.451,27.382 29.641,27.333 29.758,27.102 L31.398,23.876 C31.853,22.984 32.828,22.477 33.832,22.642 L37.376,23.222 C37.722,23.282 37.9,22.992 37.934,22.908 C37.982,22.792 38.031,22.566 37.821,22.356 L35.252,19.788 C34.542,19.079 34.371,18 34.828,17.104 L36.495,13.834 C36.581,13.664 36.578,13.499 36.483,13.345 C36.34,13.113 36.061,13.018 35.806,13.146 L32.536,14.813 C32.212,14.977 31.849,15.065 31.487,15.065 C30.87,15.065 30.289,14.824 29.852,14.387 L27.283,11.818 C27.179,11.714 27.065,11.663 26.934,11.663 Z M13.709,26.078 C13.465,26.078 13.231,25.979 13.062,25.803 L10.067,22.698 C9.73,22.35 9.73,21.797 10.067,21.448 L13.062,18.343 C13.4,17.992 14.017,17.992 14.357,18.343 L17.353,21.448 C17.69,21.797 17.69,22.35 17.353,22.698 L14.357,25.803 C14.187,25.979 13.954,26.078 13.709,26.078 Z M11.965,22.073 L13.709,23.882 L15.454,22.073 L13.709,20.265 L11.965,22.073 Z M36.25,33.959 C36.012,33.959 35.783,33.864 35.614,33.695 L33.086,31.168 C32.918,31 32.823,30.771 32.823,30.532 C32.823,30.293 32.918,30.064 33.086,29.896 L35.614,27.369 C35.783,27.2 36.012,27.105 36.25,27.105 C36.49,27.105 36.718,27.2 36.887,27.369 L39.414,29.896 C39.765,30.247 39.765,30.816 39.414,31.168 L36.887,33.695 C36.718,33.864 36.49,33.959 36.25,33.959 Z M34.995,30.532 L36.25,31.786 L37.504,30.532 L36.25,29.278 L34.995,30.532 Z M18.695,17.003 C18.448,17.003 18.212,16.902 18.042,16.724 L15.296,13.835 C14.966,13.487 14.966,12.942 15.296,12.595 L18.042,9.706 C18.382,9.349 19.007,9.349 19.347,9.706 L22.093,12.595 C22.423,12.942 22.423,13.487 22.093,13.835 L19.347,16.724 C19.177,16.902 18.942,17.003 18.695,17.003 Z M17.191,13.215 L18.695,14.797 L20.199,13.215 L18.695,11.632 L17.191,13.215 Z" id="icon-wand" fill="#00889C"></path>
    </g>
</svg>
